<?xml version="1.0" encoding="utf-8"?>
<!-- Generator: Adobe Illustrator 22.1.0, SVG Export Plug-In . SVG Version: 6.00 Build 0)  -->
<svg version="1.1" id="Layer_1" xmlns="http://www.w3.org/2000/svg" xmlns:xlink="http://www.w3.org/1999/xlink" x="0px" y="0px"
	 viewBox="0 0 1921.5 1080.5" style="enable-background:new 0 0 1921.5 1080.5;" xml:space="preserve">
<style type="text/css">
	.st0{fill:#FFFFFF;}
	.st1{fill:#F9F7FF;}
</style>
<rect class="st0" width="1921.5" height="1080.5"/>
<path class="st1" d="M1249.5,729.9C1060.5,554.4,931.2,670.3,832,907.2s-169.7,253.3-306.4,92.9S34.2,1639,718.8,1496
	S1481.1,945,1249.5,729.9z"/>
<path class="st1" d="M1792.5,854.7c-244.1,83.2-314.9-75.4-308.9-332.1s-51.7-300.5-241.9-209.8s-188.2-783.8,378.6-374.1
	S2091.7,752.7,1792.5,854.7z"/>
<path class="st1" d="M1150.5,420.5c0,43.4-69.4,78.5-155,78.5s-155-35.1-155-78.5s103-146.5,155-78.5
	C1063.5,431,1150.5,377.1,1150.5,420.5z"/>
<path class="st0" d="M1757.6,593.2c-42,10.6-93.1-48-114.2-131c-21-83-4-158.9,38-169.5c42-10.6,167.3,63.9,114.2,131
	C1726.1,511.5,1799.6,582.6,1757.6,593.2z"/>
<path class="st1" d="M122.8,674.4c39.1,18.8,40.7,96.5,3.7,173.7S27.7,972.6-11.4,953.8c-39.1-18.8-87.5-156.3-3.7-173.7
	C94.6,757.3,83.7,655.6,122.8,674.4z"/>
<path class="st1" d="M132.3,325.9c162.8,63.4,301.3,158.3,267.6,347.7s326.3,144.3,269.6-112.1S327.5,267.4,458,146.7
	s-40.3-423.3-220.7-414.9c-180.4,8.4-447.6,48-364.2,295.7S31.5,286.7,132.3,325.9z"/>
<path class="st0" d="M1051.2,1020.1c60.9,23.7,112.7,59.2,100.1,130s122.1,54,100.8-41.9c-21.2-95.9-127.9-110-79.1-155.1
	s-15.1-158.3-82.6-155.2c-67.5,3.1-167.4,18-136.2,110.6C985.4,1001.1,1013.5,1005.4,1051.2,1020.1z"/>
<path class="st0" d="M361.5,18C241.5,74,287,161,195,161S28.5,97,28.5,18S103-125,195-125S433.1-15.4,361.5,18z"/>
</svg>
